#Comment line ignore any data following # character 
#Hierarchical Translation and Rotation (.htr) file 
[Header]	
#Header keywords are followed by a single value 
FileType HTR		#Single word string
DataType HTRS		#Translation followed by rotation and scale data
FileVersion 1		#integer
NumSegments 84		#integer
NumFrames 2		#integer
DataFrameRate 30		#integer, data frame rate in this file
EulerRotationOrder ZYX
CalibrationUnits mm
RotationUnits Degrees
GlobalAxisofGravity Y
BoneLengthAxis Y
ScaleFactor 1.00
[SegmentNames&Hierarchy]
#CHILD	PARENT
MASTER GLOBAL
root MASTER
chest root
L_mid_tent01 root
R_mid_tent01 root
spine01 root
Bip01_Neck chest
L_humerus chest
R_humerus chest
weapon_bone chest
Bip01_Head Bip01_Neck
eye_left_bone Bip01_Head
eye_right_bone Bip01_Head
L_forearm L_humerus
L_front_hand L_forearm
L_weapon_bone L_forearm
L_front_hand01_01 L_front_hand
L_front_hand02_01 L_front_hand
L_front_hand03_01 L_front_hand
L_front_hand01_02 L_front_hand01_01
L_front_hand02_02 L_front_hand02_01
L_front_hand03_02 L_front_hand03_01
R_forearm R_humerus
R_front_hand R_forearm
R_weapon_bone R_forearm
R_front_hand01_01 R_front_hand
R_front_hand02_01 R_front_hand
R_front_hand03_01 R_front_hand
R_front_hand01_02 R_front_hand01_01
R_front_hand02_02 R_front_hand02_01
R_front_hand03_02 R_front_hand03_01
null_rope01_connect L_mid_tent01
Rope1_Seg01 null_rope01_connect
Rope1_Seg02 Rope1_Seg01
Rope1_Seg03 Rope1_Seg02
Rope1_Seg04 Rope1_Seg03
Rope1_Seg05 Rope1_Seg04
Rope1_Seg06 Rope1_Seg05
Rope1_Seg07 Rope1_Seg06
Rope1_Seg09 Rope1_Seg07
L_mid_hand01 Rope1_Seg09
L_mid_hand02 Rope1_Seg09
L_mid_hand03 Rope1_Seg09
null_rope02_connect R_mid_tent01
Rope2_Seg01 null_rope02_connect
Rope2_Seg02 Rope2_Seg01
Rope2_Seg03 Rope2_Seg02
Rope2_Seg04 Rope2_Seg03
Rope2_Seg05 Rope2_Seg04
Rope2_Seg06 Rope2_Seg05
Rope2_Seg07 Rope2_Seg06
Rope2_Seg09 Rope2_Seg07
R_mid_hand01 Rope2_Seg09
R_mid_hand02 Rope2_Seg09
R_mid_hand03 Rope2_Seg09
spine02 spine01
spine03 spine02
pelvis spine03
null_rope03_connect pelvis
null_rope04_connect pelvis
Rope3_Seg01 null_rope03_connect
Rope3_Seg02 Rope3_Seg01
Rope3_Seg03 Rope3_Seg02
Rope3_Seg04 Rope3_Seg03
Rope3_Seg05 Rope3_Seg04
Rope3_Seg06 Rope3_Seg05
Rope3_Seg07 Rope3_Seg06
Rope3_Seg08 Rope3_Seg07
Rope3_Seg09 Rope3_Seg08
R_rear_hand01 Rope3_Seg09
R_rear_hand02 Rope3_Seg09
R_rear_hand03 Rope3_Seg09
Rope4_Seg01 null_rope04_connect
Rope4_Seg02 Rope4_Seg01
Rope4_Seg03 Rope4_Seg02
Rope4_Seg04 Rope4_Seg03
Rope4_Seg05 Rope4_Seg04
Rope4_Seg06 Rope4_Seg05
Rope4_Seg07 Rope4_Seg06
Rope4_Seg08 Rope4_Seg07
Rope4_Seg09 Rope4_Seg08
L_rear_hand01 Rope4_Seg09
L_rear_hand02 Rope4_Seg09
L_rear_hand03 Rope4_Seg09
[BasePosition]
#SegmentName Tx, Ty, Tz, Rx, Ry, Rz, BoneLength
MASTER 0.000000 0.000000 0.000000 -90.000000 0.000000 0.000000 10.000000 
root 0.000000 0.000000 0.000000 0.000000 0.000000 0.000000 10.000000 
chest 0.000000 0.000000 0.000000 0.000000 0.000000 0.000000 10.000000 
L_mid_tent01 0.000000 0.000000 0.000000 0.000000 0.000000 0.000000 10.000000 
R_mid_tent01 0.000000 0.000000 0.000000 0.000000 0.000000 0.000000 10.000000 
spine01 0.000000 0.000000 0.000000 0.000000 0.000000 0.000000 10.000000 
Bip01_Neck 0.000000 0.000000 0.000000 0.000000 0.000000 0.000000 10.000000 
L_humerus 0.000000 0.000000 0.000000 0.000000 0.000000 0.000000 10.000000 
R_humerus 0.000000 0.000000 0.000000 0.000000 0.000000 0.000000 10.000000 
weapon_bone 0.000000 0.000000 0.000000 0.000000 0.000000 0.000000 10.000000 
Bip01_Head 0.000000 0.000000 0.000000 0.000000 0.000000 0.000000 10.000000 
eye_left_bone 0.000000 0.000000 0.000000 0.000000 0.000000 0.000000 10.000000 
eye_right_bone 0.000000 0.000000 0.000000 0.000000 0.000000 0.000000 10.000000 
L_forearm 0.000000 0.000000 0.000000 0.000000 0.000000 0.000000 10.000000 
L_front_hand 0.000000 0.000000 0.000000 0.000000 0.000000 0.000000 10.000000 
L_weapon_bone 0.000000 0.000000 0.000000 0.000000 0.000000 0.000000 10.000000 
L_front_hand01_01 0.000000 0.000000 0.000000 0.000000 0.000000 0.000000 10.000000 
L_front_hand02_01 0.000000 0.000000 0.000000 0.000000 0.000000 0.000000 10.000000 
L_front_hand03_01 0.000000 0.000000 0.000000 0.000000 0.000000 0.000000 10.000000 
L_front_hand01_02 0.000000 0.000000 0.000000 0.000000 0.000000 0.000000 10.000000 
L_front_hand02_02 0.000000 0.000000 0.000000 0.000000 0.000000 0.000000 10.000000 
L_front_hand03_02 0.000000 0.000000 0.000000 0.000000 0.000000 0.000000 10.000000 
R_forearm 0.000000 0.000000 0.000000 0.000000 0.000000 0.000000 10.000000 
R_front_hand 0.000000 0.000000 0.000000 0.000000 0.000000 0.000000 10.000000 
R_weapon_bone 0.000000 0.000000 0.000000 0.000000 0.000000 0.000000 10.000000 
R_front_hand01_01 0.000000 0.000000 0.000000 0.000000 0.000000 0.000000 10.000000 
R_front_hand02_01 0.000000 0.000000 0.000000 0.000000 0.000000 0.000000 10.000000 
R_front_hand03_01 0.000000 0.000000 0.000000 0.000000 0.000000 0.000000 10.000000 
R_front_hand01_02 0.000000 0.000000 0.000000 0.000000 0.000000 0.000000 10.000000 
R_front_hand02_02 0.000000 0.000000 0.000000 0.000000 0.000000 0.000000 10.000000 
R_front_hand03_02 0.000000 0.000000 0.000000 0.000000 0.000000 0.000000 10.000000 
null_rope01_connect 0.000000 0.000000 0.000000 0.000000 0.000000 0.000000 10.000000 
Rope1_Seg01 0.000000 0.000000 0.000000 0.000000 0.000000 0.000000 10.000000 
Rope1_Seg02 0.000000 0.000000 0.000000 0.000000 0.000000 0.000000 10.000000 
Rope1_Seg03 0.000000 0.000000 0.000000 0.000000 0.000000 0.000000 10.000000 
Rope1_Seg04 0.000000 0.000000 0.000000 0.000000 0.000000 0.000000 10.000000 
Rope1_Seg05 0.000000 0.000000 0.000000 0.000000 0.000000 0.000000 10.000000 
Rope1_Seg06 0.000000 0.000000 0.000000 0.000000 0.000000 0.000000 10.000000 
Rope1_Seg07 0.000000 0.000000 0.000000 0.000000 0.000000 0.000000 10.000000 
Rope1_Seg09 0.000000 0.000000 0.000000 0.000000 0.000000 0.000000 10.000000 
L_mid_hand01 0.000000 0.000000 0.000000 0.000000 0.000000 0.000000 10.000000 
L_mid_hand02 0.000000 0.000000 0.000000 0.000000 0.000000 0.000000 10.000000 
L_mid_hand03 0.000000 0.000000 0.000000 0.000000 0.000000 0.000000 10.000000 
null_rope02_connect 0.000000 0.000000 0.000000 0.000000 0.000000 0.000000 10.000000 
Rope2_Seg01 0.000000 0.000000 0.000000 0.000000 0.000000 0.000000 10.000000 
Rope2_Seg02 0.000000 0.000000 0.000000 0.000000 0.000000 0.000000 10.000000 
Rope2_Seg03 0.000000 0.000000 0.000000 0.000000 0.000000 0.000000 10.000000 
Rope2_Seg04 0.000000 0.000000 0.000000 0.000000 0.000000 0.000000 10.000000 
Rope2_Seg05 0.000000 0.000000 0.000000 0.000000 0.000000 0.000000 10.000000 
Rope2_Seg06 0.000000 0.000000 0.000000 0.000000 0.000000 0.000000 10.000000 
Rope2_Seg07 0.000000 0.000000 0.000000 0.000000 0.000000 0.000000 10.000000 
Rope2_Seg09 0.000000 0.000000 0.000000 0.000000 0.000000 0.000000 10.000000 
R_mid_hand01 0.000000 0.000000 0.000000 0.000000 0.000000 0.000000 10.000000 
R_mid_hand02 0.000000 0.000000 0.000000 0.000000 0.000000 0.000000 10.000000 
R_mid_hand03 0.000000 0.000000 0.000000 0.000000 0.000000 0.000000 10.000000 
spine02 0.000000 0.000000 0.000000 0.000000 0.000000 0.000000 10.000000 
spine03 0.000000 0.000000 0.000000 0.000000 0.000000 0.000000 10.000000 
pelvis 0.000000 0.000000 0.000000 0.000000 0.000000 0.000000 10.000000 
null_rope03_connect 0.000000 0.000000 0.000000 0.000000 0.000000 0.000000 10.000000 
null_rope04_connect 0.000000 0.000000 0.000000 0.000000 0.000000 0.000000 10.000000 
Rope3_Seg01 0.000000 0.000000 0.000000 0.000000 0.000000 0.000000 10.000000 
Rope3_Seg02 0.000000 0.000000 0.000000 0.000000 0.000000 0.000000 10.000000 
Rope3_Seg03 0.000000 0.000000 0.000000 0.000000 0.000000 0.000000 10.000000 
Rope3_Seg04 0.000000 0.000000 0.000000 0.000000 0.000000 0.000000 10.000000 
Rope3_Seg05 0.000000 0.000000 0.000000 0.000000 0.000000 0.000000 10.000000 
Rope3_Seg06 0.000000 0.000000 0.000000 0.000000 0.000000 0.000000 10.000000 
Rope3_Seg07 0.000000 0.000000 0.000000 0.000000 0.000000 0.000000 10.000000 
Rope3_Seg08 0.000000 0.000000 0.000000 0.000000 0.000000 0.000000 10.000000 
Rope3_Seg09 0.000000 0.000000 0.000000 0.000000 0.000000 0.000000 10.000000 
R_rear_hand01 0.000000 0.000000 0.000000 0.000000 0.000000 0.000000 10.000000 
R_rear_hand02 0.000000 0.000000 0.000000 0.000000 0.000000 0.000000 10.000000 
R_rear_hand03 0.000000 0.000000 0.000000 0.000000 0.000000 0.000000 10.000000 
Rope4_Seg01 0.000000 0.000000 0.000000 0.000000 0.000000 0.000000 10.000000 
Rope4_Seg02 0.000000 0.000000 0.000000 0.000000 0.000000 0.000000 10.000000 
Rope4_Seg03 0.000000 0.000000 0.000000 0.000000 0.000000 0.000000 10.000000 
Rope4_Seg04 0.000000 0.000000 0.000000 0.000000 0.000000 0.000000 10.000000 
Rope4_Seg05 0.000000 0.000000 0.000000 0.000000 0.000000 0.000000 10.000000 
Rope4_Seg06 0.000000 0.000000 0.000000 0.000000 0.000000 0.000000 10.000000 
Rope4_Seg07 0.000000 0.000000 0.000000 0.000000 0.000000 0.000000 10.000000 
Rope4_Seg08 0.000000 0.000000 0.000000 0.000000 0.000000 0.000000 10.000000 
Rope4_Seg09 0.000000 0.000000 0.000000 0.000000 0.000000 0.000000 10.000000 
L_rear_hand01 0.000000 0.000000 0.000000 0.000000 0.000000 0.000000 10.000000 
L_rear_hand02 0.000000 0.000000 0.000000 0.000000 0.000000 0.000000 10.000000 
L_rear_hand03 0.000000 0.000000 0.000000 0.000000 0.000000 0.000000 10.000000 
#Beginning of Data. Separated by tabs
#Fr	Tx	Ty	Tz	Rx	Ry	Rz	SF
[MASTER]
39 0.000000 0.000000 0.000000 0.001660 0.001660 0.001660 0.000000
40 0.000000 0.000000 0.000000 0.001660 0.001660 0.001660 0.000000
[root]
39 -21.076277 1.607076 1498.744995 -91.706375 7.188744 -90.037125 1498.894043
40 -17.798759 0.448718 1499.674927 -91.706375 7.188744 -90.037125 1499.780640
[chest]
39 -84.512650 -34.090519 0.000000 -2.117274 0.462005 -179.268204 91.129311
40 -84.512650 -34.090519 0.000000 -2.117274 0.462005 -179.268204 91.129311
[L_mid_tent01]
39 27.299511 22.177458 -249.918259 -11.212391 7.173965 46.128521 252.381134
40 27.299511 22.177458 -249.918259 -11.212391 7.173965 46.128521 252.381134
[R_mid_tent01]
39 23.228794 24.509907 226.238495 -173.453110 -7.865565 48.320805 228.744751
40 23.228794 24.509907 226.238495 -173.453110 -7.865565 48.320805 228.744751
[spine01]
39 -0.361383 -0.195265 0.000000 -0.000001 -0.000007 22.052340 0.410763
40 -0.361383 -0.195265 0.000000 -0.000001 -0.000007 22.052340 0.410763
[Bip01_Neck]
39 165.484543 71.581718 0.000119 175.896118 1.177290 24.871183 180.302734
40 165.484543 71.581718 0.000119 175.896118 1.177290 24.871183 180.302734
[L_humerus]
39 -13.983130 -135.272980 -120.471481 177.317520 0.814944 177.327347 181.680161
40 -13.983130 -135.272980 -120.471481 177.317520 0.814944 177.327347 181.680161
[R_humerus]
39 -13.983309 -135.273102 125.287651 -179.087967 -0.295690 175.068390 184.909012
40 -13.983309 -135.273102 125.287651 -179.087967 -0.295690 175.068390 184.909012
[weapon_bone]
39 235.964890 -300.705902 0.000000 0.000000 -89.951546 -128.212341 382.234833
40 235.964890 -300.705902 0.000000 0.000000 -89.951546 -128.212341 382.234833
[Bip01_Head]
39 97.775497 22.186661 5.309563 3.366012 3.339071 -18.399078 100.401627
40 97.775497 22.186661 5.309563 3.366012 3.339071 -18.399078 100.401627
[eye_left_bone]
39 -24.626970 125.451866 -64.772606 0.000000 -90.000000 -99.840431 143.318359
40 -24.626970 125.451866 -64.772606 0.000000 -90.000000 -99.840431 143.318359
[eye_right_bone]
39 -24.626970 125.451866 64.327362 0.000000 -89.965736 80.156380 143.117676
40 -24.626970 125.451866 64.327362 0.000000 -89.965736 80.156380 143.117676
[L_forearm]
39 322.776093 0.000000 -0.000119 0.001372 -0.001904 -161.553818 322.776093
40 322.776093 0.000000 -0.000119 0.001372 -0.001904 -161.553818 322.776093
[L_front_hand]
39 241.149185 -0.042021 -3.300071 -179.659958 -2.242151 -0.019832 241.171753
40 241.149185 -0.042021 -3.300071 -179.659958 -2.242151 -0.019832 241.171753
[L_weapon_bone]
39 156.183838 0.000000 0.000000 0.000014 0.000007 0.000001 156.183838
40 156.183838 0.000000 0.000000 0.000014 0.000007 0.000001 156.183838
[L_front_hand01_01]
39 86.095154 20.947098 -0.655860 0.405585 -0.442306 -4.620490 88.609184
40 86.095154 20.947098 -0.655860 0.405585 -0.442306 -4.620490 88.609184
[L_front_hand02_01]
39 86.935165 -11.437475 24.513514 116.959450 3.630817 1.495453 91.046425
40 86.935165 -11.437475 24.513514 116.959450 3.630817 1.495453 91.046425
[L_front_hand03_01]
39 86.637497 -14.123976 -20.424902 -118.419884 -4.660555 -0.155069 90.126129
40 86.637497 -14.123976 -20.424902 -118.419884 -4.660555 -0.155069 90.126129
[L_front_hand01_02]
39 71.020905 -0.000179 0.000030 0.000004 -0.000005 -8.379269 71.020905
40 71.020905 -0.000179 0.000030 0.000004 -0.000005 -8.379269 71.020905
[L_front_hand02_02]
39 71.020927 -0.000119 0.000060 -0.000005 -0.000004 -8.379259 71.020927
40 71.020927 -0.000119 0.000060 -0.000005 -0.000004 -8.379259 71.020927
[L_front_hand03_02]
39 71.020905 -0.000060 0.000060 0.000015 -0.000040 -8.379267 71.020905
40 71.020905 -0.000060 0.000060 0.000015 -0.000040 -8.379267 71.020905
[R_forearm]
39 322.776428 -0.000060 0.000030 0.066610 0.203476 -163.260239 322.776428
40 322.776428 -0.000060 0.000030 0.066610 0.203476 -163.260239 322.776428
[R_front_hand]
39 238.847015 -0.006795 2.210259 -0.270529 1.703932 2.322530 238.857239
40 238.847015 -0.006795 2.210259 -0.270529 1.703932 2.322530 238.857239
[R_weapon_bone]
39 155.664093 0.002503 -0.000030 0.003487 0.001180 -90.988930 155.664078
40 155.664093 0.002503 -0.000030 0.003487 0.001180 -90.988930 155.664078
[R_front_hand01_01]
39 87.624611 14.231146 22.918642 -116.960213 3.496675 -1.324139 91.683487
40 87.624611 14.231146 22.918642 -116.960213 3.496675 -1.324139 91.683487
[R_front_hand02_01]
39 89.356956 14.367283 -19.491137 118.419647 -4.257089 0.609827 92.579636
40 89.356956 14.367283 -19.491137 118.419647 -4.257089 0.609827 92.579636
[R_front_hand03_01]
39 87.286232 -22.307278 -0.143439 -0.387970 -0.231462 4.232001 90.091743
40 87.286232 -22.307278 -0.143439 -0.387970 -0.231462 4.232001 90.091743
[R_front_hand01_02]
39 71.020905 0.000060 0.000119 -0.000005 -0.000020 8.379271 71.020905
40 71.020905 0.000060 0.000119 -0.000005 -0.000020 8.379271 71.020905
[R_front_hand02_02]
39 71.020844 -0.000030 -0.000119 0.000000 -0.000021 8.379271 71.020836
40 71.020844 -0.000030 -0.000119 0.000000 -0.000021 8.379271 71.020836
[R_front_hand03_02]
39 71.020905 0.000000 0.000030 -0.000001 -0.000020 8.379275 71.020905
40 71.020905 0.000000 0.000030 -0.000001 -0.000020 8.379275 71.020905
[null_rope01_connect]
39 328.732483 0.000000 -0.000238 160.552872 -75.066147 -124.625038 328.732483
40 328.732483 0.000000 -0.000238 160.552872 -75.066147 -124.625038 328.732483
[Rope1_Seg01]
39 0.000000 0.000000 0.000000 -100.017227 56.575092 -100.696388 0.000000
40 0.000000 0.000000 0.000000 -99.187103 56.273720 -100.294350 0.000000
[Rope1_Seg02]
39 139.999863 -0.000179 0.000000 17.317957 -4.495531 -10.638648 139.999863
40 139.999863 -0.000179 0.000000 18.243404 -5.489765 -10.660807 139.999863
[Rope1_Seg03]
39 139.999924 0.000060 -0.000060 12.004958 -5.998368 -4.594248 139.999924
40 139.999924 0.000060 -0.000060 12.186484 -6.962650 -4.325772 139.999924
[Rope1_Seg04]
39 139.999924 -0.000060 -0.000119 6.619645 -5.526598 -0.903450 139.999924
40 139.999924 -0.000060 -0.000119 6.544012 -6.316060 -0.548325 139.999924
[Rope1_Seg05]
39 139.999832 0.000119 -0.000060 3.338122 -0.038740 -3.369398 139.999832
40 139.999832 0.000119 -0.000060 2.605357 0.313503 -3.266561 139.999832
[Rope1_Seg06]
39 139.999954 0.000119 -0.000060 5.315852 4.722310 -9.303944 139.999954
40 139.999954 0.000119 -0.000060 2.502301 6.545341 -9.633275 139.999954
[Rope1_Seg07]
39 139.999985 0.000060 0.000000 28.853838 6.013060 -14.806659 139.999985
40 139.999985 0.000060 0.000000 21.981787 9.714879 -15.611773 139.999985
[Rope1_Seg09]
39 121.602913 0.000119 -0.000089 -89.793175 -1.359789 0.847147 121.602913
40 121.602913 0.000119 -0.000089 -89.793175 -1.359789 0.847147 121.602913
[L_mid_hand01]
39 103.859421 1.038730 8.195221 106.855484 -31.239275 -9.461397 104.187431
40 103.859421 1.038730 8.195221 106.855484 -31.239275 -9.461397 104.187431
[L_mid_hand02]
39 105.572853 -4.139662 -10.864139 -142.331345 25.752670 -28.774628 106.211075
40 105.572853 -4.139662 -10.864139 -142.331345 25.752670 -28.774628 106.211075
[L_mid_hand03]
39 104.641464 17.579376 -3.913581 -16.122810 9.734291 34.223598 106.179977
40 104.641464 17.579376 -3.913581 -16.122810 9.734291 34.223598 106.179977
[null_rope02_connect]
39 328.732849 0.000179 -0.000119 174.610336 81.478409 -39.424759 328.732849
40 328.732849 0.000179 -0.000119 174.610336 81.478409 -39.424759 328.732849
[Rope2_Seg01]
39 0.000076 0.000112 0.000153 115.754234 49.209270 -113.458199 0.000204
40 0.000076 0.000112 0.000153 116.056961 48.740566 -112.747078 0.000204
[Rope2_Seg02]
39 139.999741 -0.000060 -0.000119 -0.161162 13.867883 -7.486453 139.999756
40 139.999741 -0.000060 -0.000119 -0.222233 12.871881 -6.706416 139.999756
[Rope2_Seg03]
39 140.000107 0.000030 0.000000 8.472503 12.472926 -13.234552 140.000107
40 140.000107 0.000030 0.000000 6.384758 11.074572 -11.274088 140.000107
[Rope2_Seg04]
39 139.999802 0.000000 -0.000060 -12.996165 12.733734 -0.282702 139.999802
40 139.999802 0.000000 -0.000060 -11.602053 13.146832 -0.469138 139.999802
[Rope2_Seg05]
39 139.999985 -0.000060 0.000119 -22.523539 3.764576 8.044518 139.999985
40 139.999985 -0.000060 0.000119 -17.603687 4.198473 5.930336 139.999985
[Rope2_Seg06]
39 139.999893 -0.000030 -0.000119 -6.429338 0.840742 2.500818 139.999893
40 139.999893 -0.000030 -0.000119 -5.588958 1.310195 1.849242 139.999893
[Rope2_Seg07]
39 139.999893 0.000060 -0.000060 -3.614328 0.408605 1.448525 139.999893
40 139.999893 0.000060 -0.000060 -3.355182 0.707514 1.123927 139.999893
[Rope2_Seg09]
39 121.338966 0.000089 -0.000060 33.793236 -1.359788 -0.847141 121.338966
40 121.338966 0.000089 -0.000060 33.793236 -1.359788 -0.847141 121.338966
[R_mid_hand01]
39 104.680779 11.144459 -10.335981 -41.523792 25.424656 28.595957 105.778534
40 104.680779 11.144459 -10.335981 -41.523792 25.424656 28.595957 105.778534
[R_mid_hand02]
39 104.070427 2.443552 8.231699 72.847389 -32.746803 10.013901 104.424065
40 104.070427 2.443552 8.231699 72.847389 -32.746803 10.013901 104.424065
[R_mid_hand03]
39 106.028137 -11.221827 -5.996406 -167.901306 10.259192 -37.009720 106.788818
40 106.028137 -11.221827 -5.996406 -167.901306 10.259192 -37.009720 106.788818
[spine02]
39 129.756927 0.001550 0.000119 0.360061 -4.044797 -12.915058 129.756927
40 129.756927 0.001550 0.000119 0.360061 -4.044797 -12.915058 129.756927
[spine03]
39 78.613846 0.087372 -4.898873 1.896495 3.831288 16.473045 78.766380
40 78.613846 0.087372 -4.898873 1.896495 3.831288 16.473045 78.766380
[pelvis]
39 169.435242 0.051022 0.000000 -0.060465 -0.180225 14.087930 169.435257
40 169.435242 0.051022 0.000000 -0.060465 -0.180225 14.087930 169.435257
[null_rope03_connect]
39 -1.257226 -2.466202 137.391083 -168.629776 -89.386429 -148.244614 137.418976
40 -1.257226 -2.466202 137.391083 -168.629776 -89.386429 -148.244614 137.418976
[null_rope04_connect]
39 -1.259640 -2.480268 -137.844437 -168.629776 -89.386429 -148.244614 137.872513
40 -1.259640 -2.480268 -137.844437 -168.629776 -89.386429 -148.244614 137.872513
[Rope3_Seg01]
39 0.000000 0.000000 0.000000 -131.220001 5.379924 -85.217285 0.000000
40 0.000000 0.000000 0.000000 -131.167694 6.246819 -82.760681 0.000000
[Rope3_Seg02]
39 139.999924 -0.000119 0.000060 -0.710358 0.916067 8.307495 139.999924
40 139.999924 -0.000119 0.000060 -0.298400 2.235824 8.501980 139.999924
[Rope3_Seg03]
39 139.999924 -0.000119 0.000119 -1.243943 2.681785 11.091791 139.999924
40 139.999924 -0.000119 0.000119 -0.497492 4.421127 11.384923 139.999924
[Rope3_Seg04]
39 139.999924 0.000119 0.000000 -1.914802 5.743229 15.190020 139.999924
40 139.999924 0.000119 0.000000 -0.147874 8.159256 15.488235 139.999924
[Rope3_Seg05]
39 139.999924 -0.000238 0.000060 -4.309175 -14.030046 -7.002831 139.999924
40 139.999924 -0.000238 0.000060 -5.736150 -14.503651 -5.490570 139.999924
[Rope3_Seg06]
39 139.999893 -0.000119 -0.000060 0.636922 -14.901957 -14.047306 139.999893
40 139.999893 -0.000119 -0.000060 -0.151261 -16.264526 -13.124854 139.999893
[Rope3_Seg07]
39 139.999771 0.000060 -0.000119 0.556477 -6.512288 -4.955538 139.999771
40 139.999771 0.000060 -0.000119 0.365274 -6.853023 -4.579622 139.999771
[Rope3_Seg08]
39 139.999985 -0.000060 0.000000 0.653138 -3.747823 -2.815841 139.999985
40 139.999985 -0.000060 0.000000 0.576165 -3.928784 -2.606471 139.999985
[Rope3_Seg09]
39 90.185997 -0.000179 -0.000060 89.793228 -1.359877 -0.847183 90.185997
40 90.185997 -0.000179 -0.000060 89.793228 -1.359877 -0.847183 90.185997
[R_rear_hand01]
39 103.366196 -6.073594 -10.757982 -161.551193 16.666374 -30.088671 104.101845
40 103.366196 -6.073594 -10.757982 -161.551193 16.666374 -30.088671 104.101845
[R_rear_hand02]
39 100.509819 12.039542 -7.992327 -34.280552 19.289745 28.875523 101.543350
40 100.509819 12.039542 -7.992327 -34.280552 19.289745 28.875523 101.543350
[R_rear_hand03]
39 101.539970 5.215704 5.435467 83.366440 -30.933914 7.284830 101.819031
40 101.539970 5.215704 5.435467 83.366440 -30.933914 7.284830 101.819031
[Rope4_Seg01]
39 0.000010 0.000038 -0.000114 51.934742 30.048738 -95.360962 0.000121
40 0.000010 0.000038 -0.000114 53.329380 29.608030 -92.043785 0.000121
[Rope4_Seg02]
39 139.999985 0.000060 0.000119 -0.210305 -4.595607 -0.762032 139.999985
40 139.999985 0.000060 0.000119 -0.049539 -5.333226 -1.877492 139.999985
[Rope4_Seg03]
39 139.999924 0.000000 -0.000238 -0.062910 -5.753521 -1.178682 139.999924
40 139.999924 0.000000 -0.000238 0.106068 -6.539326 -2.521080 139.999924
[Rope4_Seg04]
39 139.999985 0.000000 0.000119 0.788851 -12.172505 -7.139765 139.999985
40 139.999985 0.000000 0.000119 0.919973 -12.547702 -8.924992 139.999985
[Rope4_Seg05]
39 139.999802 -0.000060 -0.000119 1.006884 -0.264621 6.620660 139.999802
40 139.999802 -0.000060 -0.000119 0.948193 -1.542112 4.704095 139.999802
[Rope4_Seg06]
39 139.999924 0.000000 0.000060 1.863881 13.358039 20.227032 139.999924
40 139.999924 0.000000 0.000060 2.317653 11.948338 19.998018 139.999924
[Rope4_Seg07]
39 139.999802 0.000000 0.000000 -1.601687 5.890666 10.369075 139.999802
40 139.999802 0.000000 0.000000 -1.201745 5.838911 11.001359 139.999802
[Rope4_Seg08]
39 139.999924 0.000000 0.000119 -3.268727 2.974492 5.898310 139.999924
40 139.999924 0.000000 0.000119 -3.077672 2.945432 6.275465 139.999924
[Rope4_Seg09]
39 90.185791 0.000060 0.000060 -135.617828 2.228885 0.850567 90.185791
40 90.185791 0.000060 0.000060 -135.617828 2.228885 0.850567 90.185791
[L_rear_hand01]
39 101.696655 -8.392275 -7.654577 -34.454281 -18.946800 151.655121 102.329041
40 101.696655 -8.392275 -7.654577 -34.454281 -18.946800 151.655121 102.329041
[L_rear_hand02]
39 102.726799 -1.568258 5.773216 83.407906 30.330435 172.796509 102.900848
40 102.726799 -1.568258 5.773216 83.407906 30.330435 172.796509 102.900848
[L_rear_hand03]
39 104.552910 9.721220 -10.420293 -161.379868 -16.473232 -150.512238 105.519653
40 104.552910 9.721220 -10.420293 -161.379868 -16.473232 -150.512238 105.519653
